<svg height="1024" node-id="1" sillyvg="true" template-height="1024" template-width="1696" version="1.1" viewBox="0 0 1696 1024" width="1696" xmlns="http://www.w3.org/2000/svg" xmlns:xlink="http://www.w3.org/1999/xlink"><defs node-id="40"></defs><path d="M 1527.70 333.10 L 1633.20 333.10 L 1635.50 333.30 L 1639.50 334.80 L 1641.20 336.00 L 1643.90 339.20 L 1644.90 341.10 L 1645.40 343.20 L 1645.60 345.50 L 1645.60 491.30 L 1645.40 493.60 L 1644.90 495.60 L 1643.90 497.60 L 1641.20 500.80 L 1637.60 502.90 L 1633.20 503.70 L 1527.70 503.70 L 1525.50 503.50 L 1521.50 502.00 L 1518.20 499.30 L 1517.00 497.60 L 1515.50 493.60 L 1515.30 491.30 L 1515.30 345.50 L 1516.10 341.10 L 1518.20 337.50 L 1521.50 334.80 L 1523.40 333.80 L 1527.70 333.10 Z" fill="#ff3f08" fill-rule="nonzero" node-id="42" stroke="none" target-height="170.6" target-width="130.29993" target-x="1515.3" target-y="333.1"/><path d="M 1545.30 562.70 L 1604.30 562.70 L 1606.50 562.90 L 1608.60 563.50 L 1612.30 565.60 L 1615.00 568.80 L 1615.90 570.80 L 1616.70 575.10 L 1616.70 681.60 L 1616.50 683.90 L 1615.00 687.90 L 1612.30 691.10 L 1608.60 693.30 L 1604.30 694.00 L 1545.30 694.00 L 1543.10 693.80 L 1541.00 693.30 L 1537.30 691.10 L 1534.60 687.90 L 1533.70 686.00 L 1532.90 681.60 L 1532.90 575.10 L 1533.10 572.80 L 1534.60 568.80 L 1537.30 565.60 L 1541.00 563.50 L 1543.10 562.90 L 1545.30 562.70 Z" fill="#398cff" fill-rule="nonzero" node-id="44" stroke="none" target-height="131.29999" target-width="83.79993" target-x="1532.9" target-y="562.7"/><path d="M 1557.70 753.00 L 1682.90 753.00 L 1687.20 753.80 L 1689.10 754.70 L 1692.40 757.40 L 1694.50 761.10 L 1695.30 765.40 L 1695.30 872.00 L 1694.50 876.30 L 1692.40 879.90 L 1689.10 882.70 L 1687.20 883.60 L 1682.90 884.40 L 1557.70 884.40 L 1553.40 883.60 L 1551.50 882.70 L 1548.20 879.90 L 1546.10 876.30 L 1545.50 874.20 L 1545.30 872.00 L 1545.30 765.40 L 1545.50 763.20 L 1546.10 761.10 L 1548.20 757.40 L 1551.50 754.70 L 1553.40 753.80 L 1555.50 753.20 L 1557.70 753.00 Z" fill="#315bf4" fill-rule="nonzero" node-id="46" stroke="none" target-height="131.40002" target-width="150" target-x="1545.3" target-y="753"/><path d="M 498.60 1016.80 L 488.60 1016.00 L 483.90 1015.00 L 474.80 1011.90 L 466.40 1007.60 L 462.50 1005.00 L 457.70 1001.00 L 453.30 996.60 L 449.30 991.80 L 444.40 983.80 L 442.30 979.50 L 439.30 970.40 L 438.30 965.70 L 437.50 955.70 L 437.50 314.40 L 437.70 309.40 L 439.30 299.80 L 440.60 295.20 L 444.40 286.40 L 449.30 278.40 L 453.30 273.60 L 457.70 269.20 L 462.50 265.20 L 466.40 262.60 L 474.80 258.20 L 483.90 255.20 L 488.60 254.20 L 498.60 253.40 L 1505.00 253.40 L 1510.00 253.60 L 1519.60 255.20 L 1524.20 256.50 L 1533.00 260.20 L 1541.00 265.20 L 1545.80 269.20 L 1550.20 273.60 L 1554.20 278.40 L 1556.80 282.30 L 1561.20 290.70 L 1564.20 299.80 L 1565.20 304.50 L 1566.00 314.40 L 1566.00 955.70 L 1565.80 960.80 L 1564.20 970.40 L 1562.90 975.00 L 1559.20 983.80 L 1554.20 991.80 L 1550.20 996.60 L 1545.80 1001.00 L 1541.00 1005.00 L 1537.10 1007.60 L 1528.70 1011.90 L 1519.60 1015.00 L 1510.00 1016.50 L 1505.00 1016.80 L 498.60 1016.80 Z" fill="#ffffff" fill-rule="nonzero" node-id="48" stroke="none" target-height="763.4" target-width="1128.5" target-x="437.5" target-y="253.4"/><path d="M 1505.00 260.70 L 1510.30 260.90 L 1515.50 261.70 L 1520.60 263.00 L 1525.50 264.70 L 1530.20 267.00 L 1534.70 269.70 L 1538.90 272.80 L 1542.90 276.50 L 1546.60 280.50 L 1549.70 284.70 L 1552.40 289.20 L 1554.70 293.90 L 1556.40 298.80 L 1557.70 303.90 L 1558.50 309.10 L 1558.80 314.40 L 1558.80 955.70 L 1558.50 961.10 L 1557.70 966.30 L 1556.40 971.30 L 1554.70 976.30 L 1552.40 981.00 L 1549.70 985.40 L 1546.60 989.70 L 1542.90 993.70 L 1538.90 997.30 L 1534.70 1000.50 L 1530.20 1003.20 L 1525.50 1005.40 L 1520.60 1007.20 L 1515.50 1008.50 L 1510.30 1009.20 L 1505.00 1009.50 L 498.60 1009.50 L 493.20 1009.20 L 488.00 1008.50 L 483.00 1007.20 L 478.00 1005.40 L 473.30 1003.20 L 468.80 1000.50 L 464.60 997.30 L 460.60 993.70 L 456.90 989.70 L 453.80 985.40 L 451.10 981.00 L 448.90 976.30 L 447.10 971.30 L 445.80 966.30 L 445.00 961.10 L 444.80 955.70 L 444.80 314.40 L 445.00 309.10 L 445.80 303.90 L 447.10 298.80 L 448.90 293.90 L 451.10 289.20 L 453.80 284.70 L 456.90 280.50 L 460.60 276.50 L 464.60 272.80 L 468.80 269.70 L 473.30 267.00 L 478.00 264.70 L 483.00 263.00 L 488.00 261.70 L 493.20 260.90 L 498.60 260.70 L 1505.00 260.70 Z M 1505.00 246.20 L 498.60 246.20 L 492.90 246.40 L 487.50 247.10 L 482.20 248.20 L 477.00 249.70 L 472.00 251.60 L 467.20 253.80 L 462.70 256.40 L 458.30 259.40 L 454.20 262.70 L 446.80 270.10 L 443.50 274.20 L 440.50 278.60 L 437.90 283.10 L 435.70 287.90 L 433.80 292.90 L 432.30 298.10 L 431.20 303.30 L 430.50 308.80 L 430.30 314.40 L 430.30 955.70 L 430.50 961.40 L 431.20 966.80 L 432.30 972.10 L 433.80 977.30 L 435.70 982.30 L 437.90 987.10 L 440.50 991.60 L 443.50 996.00 L 450.30 1003.90 L 454.20 1007.50 L 458.30 1010.80 L 462.70 1013.70 L 467.20 1016.30 L 472.00 1018.60 L 477.00 1020.50 L 482.20 1022.00 L 487.50 1023.10 L 492.90 1023.80 L 498.60 1024.00 L 1505.00 1024.00 L 1510.60 1023.80 L 1516.10 1023.10 L 1521.40 1022.00 L 1526.50 1020.50 L 1531.50 1018.60 L 1536.30 1016.30 L 1540.90 1013.70 L 1545.20 1010.80 L 1549.40 1007.50 L 1553.20 1003.90 L 1556.70 1000.10 L 1563.00 991.60 L 1565.60 987.10 L 1567.80 982.30 L 1569.70 977.30 L 1571.20 972.10 L 1572.30 966.80 L 1573.00 961.40 L 1573.20 955.70 L 1573.20 314.40 L 1573.00 308.80 L 1572.30 303.30 L 1571.20 298.10 L 1569.70 292.90 L 1567.80 287.90 L 1565.60 283.10 L 1563.00 278.60 L 1560.00 274.20 L 1556.70 270.10 L 1549.40 262.70 L 1545.20 259.40 L 1540.90 256.40 L 1536.30 253.80 L 1531.50 251.60 L 1526.50 249.70 L 1521.40 248.20 L 1516.10 247.10 L 1510.60 246.40 L 1505.00 246.20 Z" fill="#000000" fill-rule="nonzero" node-id="50" stroke="none" target-height="777.8" target-width="1142.8999" target-x="430.3" target-y="246.2"/><path d="M 443.70 874.00 L 1558.80 874.00 L 1558.80 957.40 L 1558.50 962.80 L 1557.70 967.90 L 1556.40 972.90 L 1554.60 977.60 L 1552.40 982.20 L 1549.80 986.50 L 1546.80 990.50 L 1543.50 994.20 L 1539.70 997.60 L 1535.70 1000.60 L 1531.50 1003.20 L 1526.90 1005.40 L 1522.10 1007.20 L 1517.20 1008.40 L 1512.00 1009.20 L 1506.70 1009.50 L 495.80 1009.50 L 490.50 1009.20 L 485.30 1008.40 L 480.40 1007.20 L 475.60 1005.40 L 471.00 1003.20 L 466.70 1000.60 L 462.80 997.60 L 459.00 994.20 L 455.70 990.50 L 452.70 986.50 L 450.10 982.20 L 447.80 977.60 L 446.10 972.90 L 444.80 967.90 L 444.00 962.80 L 443.70 957.40 L 443.70 874.00 Z" fill="#315bf4" fill-rule="nonzero" node-id="52" stroke="none" target-height="135.5" target-width="1115.1001" target-x="443.7" target-y="874"/><path d="M 1002.30 973.00 L 1006.50 972.70 L 1010.50 971.90 L 1014.20 970.60 L 1017.80 968.80 L 1021.00 966.60 L 1024.00 964.00 L 1026.60 961.10 L 1028.80 957.80 L 1030.60 954.20 L 1031.90 950.50 L 1032.70 946.50 L 1033.00 942.30 L 1032.70 938.10 L 1031.90 934.10 L 1030.60 930.30 L 1028.80 926.80 L 1026.60 923.50 L 1024.00 920.60 L 1021.00 918.00 L 1017.80 915.80 L 1014.20 914.00 L 1010.50 912.70 L 1006.50 911.90 L 1002.30 911.60 L 998.10 911.90 L 994.10 912.70 L 990.30 914.00 L 986.80 915.80 L 983.50 918.00 L 980.60 920.60 L 978.00 923.50 L 975.80 926.80 L 974.00 930.30 L 972.70 934.10 L 971.90 938.10 L 971.60 942.30 L 971.90 946.50 L 972.70 950.50 L 974.00 954.20 L 975.80 957.80 L 978.00 961.10 L 980.60 964.00 L 983.50 966.60 L 986.80 968.80 L 990.30 970.60 L 994.10 971.90 L 998.10 972.70 L 1002.30 973.00 Z" fill="#ffffff" fill-rule="nonzero" node-id="54" stroke="none" target-height="61.400024" target-width="61.400024" target-x="971.6" target-y="911.6"/><path d="M 1211.20 372.40 L 1486.40 372.40 L 1488.60 372.60 L 1490.70 373.10 L 1492.60 374.10 L 1495.80 376.80 L 1498.00 380.40 L 1498.50 382.50 L 1498.80 384.80 L 1498.80 442.70 L 1498.00 447.00 L 1497.10 449.00 L 1494.30 452.20 L 1490.70 454.30 L 1486.40 455.10 L 1211.20 455.10 L 1206.90 454.30 L 1205.00 453.40 L 1201.70 450.70 L 1199.60 447.00 L 1199.00 445.00 L 1198.80 442.70 L 1198.80 384.80 L 1199.60 380.40 L 1201.70 376.80 L 1205.00 374.10 L 1206.90 373.10 L 1211.20 372.40 Z" fill="#315bf4" fill-rule="nonzero" node-id="56" stroke="none" target-height="82.70001" target-width="300" target-x="1198.8" target-y="372.4"/><path d="M 1211.20 636.10 L 1486.40 636.10 L 1490.70 636.90 L 1492.60 637.80 L 1495.80 640.50 L 1498.00 644.20 L 1498.50 646.30 L 1498.80 648.50 L 1498.80 706.50 L 1498.50 708.70 L 1498.00 710.80 L 1497.10 712.70 L 1494.30 715.90 L 1492.60 717.20 L 1490.70 718.10 L 1488.60 718.70 L 1486.40 718.90 L 1211.20 718.90 L 1206.90 718.10 L 1205.00 717.20 L 1201.70 714.50 L 1199.60 710.80 L 1199.00 708.70 L 1198.80 706.50 L 1198.80 648.50 L 1199.60 644.20 L 1200.50 642.30 L 1203.20 639.10 L 1206.90 636.90 L 1211.20 636.10 Z" fill="#ff3f08" fill-rule="nonzero" node-id="58" stroke="none" target-height="82.80005" target-width="300" target-x="1198.8" target-y="636.1"/><path d="M 242.70 908.20 L 236.70 907.80 L 231.00 906.90 L 225.50 905.40 L 220.20 903.30 L 215.20 900.70 L 210.60 897.60 L 206.20 894.10 L 202.30 890.20 L 198.80 885.80 L 195.70 881.20 L 193.10 876.20 L 191.00 870.90 L 189.50 865.40 L 188.60 859.70 L 188.30 853.70 L 188.30 171.30 L 188.60 165.30 L 189.50 159.60 L 191.00 154.10 L 193.10 148.80 L 195.70 143.90 L 198.80 139.20 L 202.30 134.90 L 206.20 130.90 L 210.60 127.40 L 215.20 124.30 L 220.20 121.70 L 225.50 119.70 L 231.00 118.10 L 236.70 117.20 L 242.70 116.90 L 1326.40 116.90 L 1332.40 117.20 L 1338.10 118.10 L 1343.60 119.70 L 1348.90 121.70 L 1353.90 124.30 L 1358.50 127.40 L 1362.90 130.90 L 1366.80 134.90 L 1370.30 139.20 L 1373.40 143.90 L 1376.00 148.80 L 1378.10 154.10 L 1379.60 159.60 L 1380.50 165.30 L 1380.80 171.30 L 1380.80 853.70 L 1380.50 859.70 L 1379.60 865.40 L 1378.10 870.90 L 1376.00 876.20 L 1373.40 881.20 L 1370.30 885.80 L 1366.80 890.20 L 1362.90 894.10 L 1358.50 897.60 L 1353.90 900.70 L 1348.90 903.30 L 1343.60 905.40 L 1338.10 906.90 L 1332.40 907.80 L 1326.40 908.20 L 242.70 908.20 Z" fill="#ffffff" fill-rule="nonzero" node-id="60" stroke="none" target-height="791.3" target-width="1192.5" target-x="188.3" target-y="116.9"/><path d="M 1326.40 124.10 L 1331.10 124.40 L 1335.70 125.00 L 1340.10 126.10 L 1344.40 127.70 L 1348.60 129.70 L 1352.50 132.00 L 1356.20 134.80 L 1359.70 138.00 L 1362.90 141.50 L 1365.70 145.20 L 1368.10 149.20 L 1370.00 153.30 L 1371.60 157.60 L 1372.70 162.00 L 1373.40 166.60 L 1373.60 171.30 L 1373.60 853.70 L 1373.40 858.40 L 1372.70 863.00 L 1371.60 867.40 L 1370.00 871.70 L 1368.10 875.90 L 1365.70 879.80 L 1362.90 883.50 L 1359.70 887.00 L 1356.20 890.20 L 1352.50 893.00 L 1348.60 895.40 L 1344.40 897.30 L 1340.10 898.90 L 1335.70 900.00 L 1331.10 900.70 L 1326.40 900.90 L 242.70 900.90 L 238.00 900.70 L 233.40 900.00 L 229.00 898.90 L 224.70 897.30 L 220.50 895.40 L 216.60 893.00 L 212.90 890.20 L 209.40 887.00 L 206.20 883.50 L 203.40 879.80 L 201.00 875.90 L 199.10 871.70 L 197.50 867.40 L 196.40 863.00 L 195.70 858.40 L 195.50 853.70 L 195.50 171.30 L 195.70 166.60 L 196.40 162.00 L 197.50 157.60 L 199.10 153.30 L 201.00 149.20 L 203.40 145.20 L 206.20 141.50 L 209.40 138.00 L 212.90 134.80 L 216.60 132.00 L 220.50 129.70 L 224.70 127.70 L 229.00 126.10 L 233.40 125.00 L 238.00 124.40 L 242.70 124.10 L 1326.40 124.10 Z M 1326.40 109.60 L 242.70 109.60 L 232.70 110.50 L 223.20 112.80 L 214.40 116.60 L 206.30 121.60 L 201.40 125.60 L 197.00 130.00 L 192.90 134.90 L 187.90 143.00 L 184.20 151.90 L 182.80 156.50 L 181.20 166.20 L 181.00 171.30 L 181.00 853.70 L 181.80 863.80 L 182.80 868.50 L 185.90 877.70 L 190.30 886.10 L 192.90 890.10 L 197.00 895.00 L 201.40 899.40 L 206.30 903.50 L 214.40 908.50 L 223.20 912.20 L 227.90 913.60 L 237.60 915.20 L 242.70 915.40 L 1326.40 915.40 L 1336.40 914.60 L 1341.20 913.60 L 1345.90 912.20 L 1354.70 908.50 L 1362.80 903.50 L 1367.70 899.40 L 1372.10 895.00 L 1376.20 890.10 L 1381.20 882.00 L 1384.90 873.20 L 1386.30 868.50 L 1387.30 863.80 L 1387.90 858.80 L 1388.10 853.70 L 1388.10 171.30 L 1387.90 166.20 L 1386.30 156.50 L 1384.90 151.90 L 1381.20 143.00 L 1376.20 134.90 L 1372.10 130.00 L 1367.70 125.60 L 1362.80 121.60 L 1358.80 118.90 L 1350.40 114.50 L 1341.20 111.40 L 1336.40 110.50 L 1326.40 109.60 Z" fill="#000000" fill-rule="nonzero" node-id="62" stroke="none" target-height="805.80005" target-width="1207.1" target-x="181" target-y="109.6"/><path d="M 1388.10 204.80 L 187.20 204.80 L 187.20 217.20 L 1388.10 217.20 L 1388.10 204.80 Z" fill="#000000" fill-rule="nonzero" node-id="64" stroke="none" target-height="12.399994" target-width="1200.9" target-x="187.2" target-y="204.8"/><path d="M 236.90 57.90 L 240.80 57.60 L 244.60 56.90 L 248.10 55.60 L 251.50 54.00 L 254.60 51.90 L 257.30 49.40 L 259.80 46.70 L 261.90 43.60 L 263.60 40.20 L 264.80 36.70 L 265.60 32.90 L 265.80 29.00 L 265.60 25.00 L 264.80 21.20 L 263.60 17.70 L 261.90 14.30 L 259.80 11.30 L 257.30 8.50 L 254.60 6.00 L 251.50 4.00 L 248.10 2.30 L 244.60 1.00 L 240.80 0.30 L 236.90 0.00 L 232.90 0.30 L 229.10 1.00 L 225.60 2.30 L 222.20 4.00 L 219.20 6.00 L 216.40 8.50 L 213.90 11.30 L 211.90 14.30 L 210.20 17.70 L 208.90 21.20 L 208.20 25.00 L 207.90 29.00 L 208.20 32.90 L 208.90 36.70 L 210.20 40.20 L 211.90 43.60 L 213.90 46.70 L 216.40 49.40 L 219.20 51.90 L 222.20 54.00 L 225.60 55.60 L 229.10 56.90 L 232.90 57.60 L 236.90 57.90 Z" fill="#ff3f08" fill-rule="nonzero" node-id="66" stroke="none" target-height="57.9" target-width="57.899994" target-x="207.9" target-y="0"/><path d="M 336.20 57.90 L 340.10 57.60 L 343.90 56.90 L 347.40 55.60 L 350.80 54.00 L 353.90 51.90 L 356.60 49.40 L 359.10 46.70 L 361.20 43.60 L 362.80 40.20 L 364.10 36.70 L 364.80 32.90 L 365.10 29.00 L 364.80 25.00 L 364.10 21.20 L 362.80 17.70 L 361.20 14.30 L 359.10 11.30 L 356.60 8.50 L 353.90 6.00 L 350.80 4.00 L 347.40 2.30 L 343.90 1.00 L 340.10 0.30 L 336.20 0.00 L 332.20 0.30 L 328.40 1.00 L 324.90 2.30 L 321.50 4.00 L 318.50 6.00 L 315.70 8.50 L 313.20 11.30 L 311.20 14.30 L 309.50 17.70 L 308.20 21.20 L 307.50 25.00 L 307.20 29.00 L 307.50 32.90 L 308.20 36.70 L 309.50 40.20 L 311.20 43.60 L 313.20 46.70 L 315.70 49.40 L 318.50 51.90 L 321.50 54.00 L 324.90 55.60 L 328.40 56.90 L 332.20 57.60 L 336.20 57.90 Z" fill="#315bf4" fill-rule="nonzero" node-id="68" stroke="none" target-height="57.9" target-width="57.899994" target-x="307.2" target-y="0"/><path d="M 430.30 57.90 L 434.30 57.60 L 438.00 56.90 L 441.60 55.60 L 444.90 54.00 L 448.00 51.90 L 450.80 49.40 L 453.20 46.70 L 455.30 43.60 L 457.00 40.20 L 458.20 36.70 L 459.00 32.90 L 459.20 29.00 L 459.00 25.00 L 458.20 21.20 L 457.00 17.70 L 455.30 14.30 L 453.20 11.30 L 450.80 8.50 L 448.00 6.00 L 444.90 4.00 L 441.60 2.30 L 438.00 1.00 L 434.30 0.30 L 430.30 0.00 L 426.30 0.30 L 422.60 1.00 L 419.00 2.30 L 415.70 4.00 L 412.60 6.00 L 409.80 8.50 L 407.40 11.30 L 405.30 14.30 L 403.60 17.70 L 402.40 21.20 L 401.60 25.00 L 401.30 29.00 L 401.60 32.90 L 402.40 36.70 L 403.60 40.20 L 405.30 43.60 L 407.40 46.70 L 409.80 49.40 L 412.60 51.90 L 415.70 54.00 L 419.00 55.60 L 422.60 56.90 L 426.30 57.60 L 430.30 57.90 Z" fill="#315bf4" fill-rule="nonzero" node-id="70" stroke="none" target-height="57.9" target-width="57.900024" target-x="401.3" target-y="0"/><path d="M 400.30 780.90 L 335.10 780.90 L 332.90 780.70 L 330.80 780.20 L 327.10 778.00 L 324.40 774.80 L 323.50 772.80 L 322.70 768.50 L 322.70 552.30 L 323.50 548.00 L 325.70 544.30 L 328.90 541.60 L 332.90 540.10 L 335.10 539.90 L 400.30 539.90 L 402.50 540.10 L 404.60 540.70 L 408.30 542.90 L 411.00 546.10 L 411.90 548.00 L 412.70 552.30 L 412.70 768.50 L 411.90 772.80 L 411.00 774.80 L 408.30 778.00 L 404.60 780.20 L 400.30 780.90 Z" fill="#315bf4" fill-rule="nonzero" node-id="72" stroke="none" target-height="241" target-width="90" target-x="322.7" target-y="539.9"/><path d="M 552.30 780.90 L 487.20 780.90 L 484.90 780.70 L 482.80 780.20 L 479.20 778.00 L 476.50 774.80 L 475.00 770.80 L 474.80 768.50 L 474.80 421.00 L 475.50 416.70 L 477.70 413.00 L 480.90 410.30 L 482.80 409.30 L 487.20 408.60 L 552.30 408.60 L 554.60 408.80 L 558.60 410.30 L 561.80 413.00 L 564.00 416.70 L 564.50 418.70 L 564.80 421.00 L 564.80 768.50 L 564.00 772.80 L 561.80 776.50 L 558.60 779.20 L 556.70 780.20 L 552.30 780.90 Z" fill="#ff3f08" fill-rule="nonzero" node-id="74" stroke="none" target-height="372.30002" target-width="90" target-x="474.8" target-y="408.6"/><path d="M 713.70 780.90 L 648.50 780.90 L 646.30 780.70 L 644.20 780.10 L 640.50 778.00 L 637.80 774.80 L 636.30 770.80 L 636.10 768.50 L 636.10 302.00 L 636.90 297.70 L 639.10 294.00 L 642.30 291.30 L 644.20 290.40 L 648.50 289.60 L 713.70 289.60 L 716.00 289.80 L 718.00 290.40 L 721.70 292.60 L 724.40 295.80 L 725.90 299.80 L 726.10 302.00 L 726.10 768.50 L 725.90 770.80 L 725.30 772.80 L 723.20 776.50 L 719.90 779.20 L 718.00 780.10 L 713.70 780.90 Z" fill="#315bf4" fill-rule="nonzero" node-id="76" stroke="none" target-height="491.30002" target-width="90" target-x="636.1" target-y="289.6"/><path d="M 765.40 772.70 L 274.10 772.70 L 274.10 789.20 L 765.40 789.20 L 765.40 772.70 Z" fill="#000000" fill-rule="nonzero" node-id="78" stroke="none" target-height="16.5" target-width="491.30002" target-x="274.1" target-y="772.7"/><path d="M 12.40 319.60 L 336.20 319.60 L 338.40 319.80 L 342.40 321.30 L 345.60 324.00 L 346.90 325.80 L 348.40 329.80 L 348.60 332.00 L 348.60 488.20 L 347.80 492.50 L 345.60 496.20 L 342.40 498.90 L 338.40 500.40 L 336.20 500.60 L 12.40 500.60 L 10.20 500.40 L 6.20 498.90 L 2.90 496.20 L 1.70 494.50 L 0.20 490.50 L 0.00 488.20 L 0.00 332.00 L 0.80 327.70 L 1.70 325.80 L 4.40 322.50 L 8.10 320.40 L 12.40 319.60 Z" fill="#315bf4" fill-rule="nonzero" node-id="80" stroke="none" target-height="181" target-width="348.6" target-x="0" target-y="319.6"/><path d="M 39.30 441.70 L 83.80 408.60" fill="none" node-id="82" stroke="#ffffff" stroke-linecap="round" stroke-width="14" target-height="33.100006" target-width="44.500004" target-x="39.3" target-y="408.6"/><path d="M 105.50 437.50 L 83.80 408.60" fill="none" node-id="84" stroke="#ffffff" stroke-linecap="round" stroke-width="14" target-height="28.899994" target-width="21.699997" target-x="83.8" target-y="408.6"/><path d="M 163.40 382.70 L 105.50 437.50" fill="none" node-id="86" stroke="#ffffff" stroke-linecap="round" stroke-width="14" target-height="54.799988" target-width="57.899994" target-x="105.5" target-y="382.7"/><path d="M 164.80 384.50 L 190.70 434.20" fill="none" node-id="88" stroke="#ffffff" stroke-linecap="round" stroke-width="14" target-height="49.700012" target-width="25.899994" target-x="164.8" target-y="384.5"/><path d="M 281.30 368.20 L 191.40 435.50" fill="none" node-id="90" stroke="#ffffff" stroke-linecap="round" stroke-width="14" target-height="67.29999" target-width="89.899994" target-x="191.4" target-y="368.2"/><path d="M 226.50 361.00 L 281.30 367.20" fill="none" node-id="92" stroke="#ffffff" stroke-linecap="round" stroke-width="14" target-height="6.200012" target-width="54.799988" target-x="226.5" target-y="361"/><path d="M 281.30 367.20 L 274.10 417.90" fill="none" node-id="94" stroke="#ffffff" stroke-linecap="round" stroke-width="14" target-height="50.69998" target-width="7.1999817" target-x="274.1" target-y="367.2"/><path d="M 851.30 289.60 L 1271.20 289.60 L 1275.50 290.40 L 1277.50 291.30 L 1280.70 294.00 L 1282.80 297.70 L 1283.60 302.00 L 1283.60 768.50 L 1282.80 772.80 L 1280.70 776.50 L 1277.50 779.20 L 1275.50 780.20 L 1271.20 780.90 L 851.30 780.90 L 849.00 780.70 L 846.90 780.20 L 845.00 779.20 L 841.80 776.50 L 839.60 772.80 L 838.90 768.50 L 838.90 302.00 L 839.60 297.70 L 840.60 295.80 L 843.30 292.60 L 846.90 290.40 L 851.30 289.60 Z" fill="#d2e9fe" fill-rule="nonzero" node-id="96" stroke="none" target-height="491.30002" target-width="444.69995" target-x="838.9" target-y="289.6"/><path d="M 918.50 344.40 L 995.00 344.40 L 999.40 345.20 L 1001.30 346.10 L 1004.50 348.90 L 1006.70 352.50 L 1007.50 356.90 L 1007.50 433.40 L 1006.70 437.70 L 1004.50 441.40 L 1001.30 444.10 L 997.30 445.60 L 995.00 445.80 L 918.50 445.80 L 914.20 445.00 L 912.20 444.10 L 909.00 441.40 L 906.90 437.70 L 906.10 433.40 L 906.10 356.90 L 906.30 354.60 L 907.80 350.60 L 910.50 347.40 L 914.20 345.20 L 918.50 344.40 Z" fill="#315bf4" fill-rule="nonzero" node-id="98" stroke="none" target-height="101.399994" target-width="101.400024" target-x="906.1" target-y="344.4"/><path d="M 1156.90 384.80 L 1067.90 384.60 L 1064.00 383.10 L 1060.90 380.50 L 1058.90 377.00 L 1058.10 372.90 L 1058.90 368.70 L 1060.90 365.20 L 1064.00 362.60 L 1065.90 361.70 L 1070.00 361.00 L 1156.90 361.00 L 1161.10 361.70 L 1164.60 363.80 L 1167.20 366.90 L 1168.60 370.70 L 1168.80 372.90 L 1168.60 375.00 L 1167.20 378.90 L 1164.60 382.00 L 1161.10 384.00 L 1156.90 384.80 Z" fill="#ff3f08" fill-rule="nonzero" node-id="100" stroke="none" target-height="23.799988" target-width="110.70007" target-x="1058.1" target-y="361"/><path d="M 1211.70 437.50 L 1067.90 437.30 L 1064.00 435.90 L 1060.90 433.30 L 1058.90 429.80 L 1058.10 425.60 L 1058.90 421.50 L 1060.90 418.00 L 1064.00 415.40 L 1065.90 414.50 L 1070.00 413.70 L 1213.90 413.90 L 1217.70 415.40 L 1220.80 418.00 L 1222.90 421.50 L 1223.60 425.60 L 1222.90 429.80 L 1222.00 431.60 L 1219.40 434.70 L 1215.90 436.80 L 1211.70 437.50 Z" fill="#315bf4" fill-rule="nonzero" node-id="102" stroke="none" target-height="23.799988" target-width="165.5" target-x="1058.1" target-y="413.7"/><path d="M 1215.40 512.00 L 908.20 512.00 L 905.90 511.70 L 904.00 510.90 L 902.30 509.60 L 901.00 507.90 L 900.20 505.90 L 899.90 503.70 L 900.20 501.50 L 901.00 499.60 L 902.30 497.90 L 904.00 496.60 L 905.90 495.80 L 908.20 495.50 L 1215.40 495.50 L 1217.60 495.80 L 1219.50 496.60 L 1221.20 497.90 L 1222.50 499.60 L 1223.30 501.50 L 1223.60 503.70 L 1223.30 505.90 L 1222.50 507.90 L 1221.20 509.60 L 1219.50 510.90 L 1217.60 511.70 L 1215.40 512.00 Z" fill="#315bf4" fill-rule="nonzero" node-id="104" stroke="none" target-height="16.5" target-width="323.69995" target-x="899.9" target-y="495.5"/><path d="M 1211.20 607.20 L 912.30 607.20 L 910.00 606.90 L 906.00 605.50 L 902.80 602.70 L 900.70 599.10 L 899.90 594.70 L 900.10 565.60 L 900.70 563.50 L 902.80 559.90 L 906.00 557.10 L 910.00 555.70 L 912.30 555.40 L 1211.20 555.40 L 1213.50 555.70 L 1217.50 557.10 L 1220.70 559.90 L 1222.90 563.50 L 1223.40 565.60 L 1223.60 594.70 L 1222.90 599.10 L 1220.70 602.70 L 1217.50 605.50 L 1215.50 606.40 L 1211.20 607.20 Z" fill="#398cff" fill-rule="nonzero" node-id="106" stroke="none" target-height="51.799988" target-width="323.69995" target-x="899.9" target-y="555.4"/><path d="M 913.80 664.10 L 916.40 663.80 L 918.70 663.20 L 920.90 662.10 L 922.80 660.80 L 925.90 657.10 L 926.90 655.00 L 927.60 652.60 L 927.80 650.10 L 927.60 647.50 L 926.90 645.20 L 925.90 643.00 L 924.50 641.10 L 922.80 639.40 L 920.90 638.00 L 918.70 637.00 L 916.40 636.40 L 913.80 636.10 L 911.30 636.40 L 909.00 637.00 L 906.80 638.00 L 904.80 639.40 L 903.20 641.10 L 901.80 643.00 L 900.80 645.20 L 900.10 647.50 L 899.90 650.10 L 900.10 652.60 L 900.80 655.00 L 903.20 659.10 L 904.80 660.80 L 906.80 662.10 L 909.00 663.20 L 911.30 663.80 L 913.80 664.10 Z" fill="#ff3f08" fill-rule="nonzero" node-id="108" stroke="none" target-height="28" target-width="27.899963" target-x="899.9" target-y="636.1"/><path d="M 957.30 664.10 L 959.80 663.80 L 962.20 663.20 L 964.30 662.10 L 968.00 659.10 L 969.30 657.10 L 970.40 655.00 L 971.00 652.60 L 971.20 650.10 L 971.00 647.50 L 970.40 645.20 L 968.00 641.10 L 966.30 639.40 L 964.30 638.00 L 962.20 637.00 L 959.80 636.40 L 957.30 636.10 L 954.70 636.40 L 952.40 637.00 L 950.20 638.00 L 948.30 639.40 L 946.60 641.10 L 945.20 643.00 L 944.20 645.20 L 943.60 647.50 L 943.30 650.10 L 943.60 652.60 L 944.20 655.00 L 945.20 657.10 L 946.60 659.10 L 948.30 660.80 L 950.20 662.10 L 952.40 663.20 L 954.70 663.80 L 957.30 664.10 Z" fill="#ff3f08" fill-rule="nonzero" node-id="110" stroke="none" target-height="28" target-width="27.900024" target-x="943.3" target-y="636.1"/><path d="M 1004.90 664.10 L 1007.40 663.80 L 1009.70 663.20 L 1013.90 660.80 L 1015.50 659.10 L 1016.90 657.10 L 1018.00 655.00 L 1018.60 652.60 L 1018.80 650.10 L 1018.60 647.50 L 1018.00 645.20 L 1016.90 643.00 L 1015.50 641.10 L 1013.90 639.40 L 1011.90 638.00 L 1009.70 637.00 L 1007.40 636.40 L 1004.90 636.10 L 1002.30 636.40 L 1000.00 637.00 L 997.80 638.00 L 995.90 639.40 L 992.80 643.00 L 991.80 645.20 L 991.10 647.50 L 990.90 650.10 L 991.10 652.60 L 991.80 655.00 L 992.80 657.10 L 994.20 659.10 L 995.90 660.80 L 997.80 662.10 L 1000.00 663.20 L 1002.30 663.80 L 1004.90 664.10 Z" fill="#315bf4" fill-rule="nonzero" node-id="112" stroke="none" target-height="28" target-width="27.899963" target-x="990.9" target-y="636.1"/><path d="M 1074.30 694.60 L 1073.80 694.40 L 1075.30 705.80 L 1077.10 705.00 L 1079.10 704.80 L 1082.90 705.40 L 1086.60 707.00 L 1091.90 710.30 L 1093.30 711.50 L 1095.10 714.00 L 1101.00 725.30 L 1103.00 727.70 L 1104.70 729.00 L 1107.60 730.10 L 1110.50 729.80 L 1113.90 728.00 L 1117.40 724.30 L 1122.20 717.20 L 1125.80 712.60 L 1129.80 708.30 L 1136.50 702.50 L 1139.00 700.90 L 1140.20 700.60 L 1141.20 700.90 L 1141.60 701.40 L 1146.30 709.70 L 1149.60 713.30 L 1154.00 716.40 L 1157.70 717.30 L 1159.60 717.10 L 1161.50 716.20 L 1163.60 714.50 L 1166.00 710.80 L 1168.40 704.30 L 1168.70 702.90 L 1162.30 703.10 L 1164.70 708.20 L 1166.30 710.50 L 1168.20 712.40 L 1170.30 713.90 L 1172.60 715.00 L 1175.10 715.60 L 1177.90 715.80 L 1184.30 714.90 L 1191.20 712.60 L 1196.40 710.20 L 1196.30 710.50 L 1194.80 709.60 L 1196.00 711.90 L 1198.30 713.90 L 1201.50 714.90 L 1204.90 714.50 L 1209.90 711.90 L 1213.90 709.40 L 1217.50 705.30 L 1216.40 705.80 L 1211.60 705.20 L 1214.90 709.30 L 1217.10 711.40 L 1219.50 713.20 L 1221.40 714.00 L 1225.20 714.90 L 1231.20 715.10 L 1233.10 714.80 L 1234.60 714.10 L 1235.70 713.10 L 1237.00 710.40 L 1237.00 707.30 L 1236.50 705.90 L 1234.60 703.60 L 1233.10 702.90 L 1231.20 702.70 L 1227.00 702.70 L 1225.80 702.40 L 1224.70 701.70 L 1220.40 696.70 L 1218.90 695.30 L 1217.20 694.30 L 1215.50 693.80 L 1213.60 693.70 L 1211.40 694.40 L 1210.00 695.20 L 1205.60 699.80 L 1201.00 702.90 L 1205.50 703.90 L 1204.80 702.70 L 1201.80 699.60 L 1200.00 698.70 L 1196.30 697.90 L 1192.60 698.50 L 1183.80 702.40 L 1179.70 703.60 L 1177.80 703.70 L 1176.60 703.40 L 1175.50 702.60 L 1171.80 695.10 L 1170.30 693.90 L 1168.80 693.00 L 1165.20 692.20 L 1161.60 693.10 L 1159.70 694.40 L 1158.30 696.20 L 1156.50 700.40 L 1154.50 706.20 L 1159.10 705.50 L 1155.00 700.00 L 1152.00 694.70 L 1150.10 692.20 L 1147.90 690.20 L 1146.20 689.20 L 1142.40 688.10 L 1139.50 688.10 L 1136.80 688.60 L 1134.00 689.60 L 1130.20 691.70 L 1126.50 694.40 L 1120.00 700.20 L 1115.90 704.90 L 1107.60 716.50 L 1106.60 718.50 L 1106.70 719.00 L 1108.70 719.40 L 1111.80 719.00 L 1108.50 711.80 L 1104.30 705.70 L 1099.00 700.40 L 1096.00 698.10 L 1089.60 694.50 L 1086.20 693.30 L 1082.80 692.50 L 1079.30 692.30 L 1075.90 692.60 L 1072.40 693.50 L 1069.00 695.10 L 1067.60 696.20 L 1066.60 697.50 L 1066.10 698.90 L 1066.00 700.40 L 1066.90 703.30 L 1069.00 705.60 L 1071.00 706.60 L 1072.80 707.00 L 1074.40 706.90 L 1075.70 706.30 L 1077.60 704.10 L 1078.50 701.10 L 1077.90 698.00 L 1077.10 696.70 L 1076.00 695.50 L 1074.30 694.60 Z" fill="#315bf4" fill-rule="nonzero" node-id="114" stroke="none" target-height="42" target-width="171" target-x="1066" target-y="688.1"/></svg>